<?xml version="1.0" encoding="iso-8859-1"?>
<!-- Uploaded to: SVG Repo, www.svgrepo.com, Generator: SVG Repo Mixer Tools -->
<svg version="1.1" id="Layer_1" xmlns="http://www.w3.org/2000/svg" xmlns:xlink="http://www.w3.org/1999/xlink" 
	 viewBox="0 0 512 512" xml:space="preserve">
<rect y="5.976" style="fill:#C9E8FA;" width="471.103" height="403.331"/>
<rect y="5.976" style="fill:#67BFFF;" width="471.103" height="80.881"/>
<rect x="235.551" y="5.976" style="fill:#B6E0F7;" width="235.551" height="403.331"/>
<rect x="235.551" y="5.976" style="fill:#0088FF;" width="235.551" height="80.881"/>
<g>
	<rect x="358.529" y="33.447" style="fill:#F4F4F4;" width="20.601" height="20.601"/>
	<rect x="390.806" y="33.447" style="fill:#F4F4F4;" width="20.601" height="20.601"/>
	<rect x="423.073" y="33.447" style="fill:#F4F4F4;" width="20.601" height="20.601"/>
</g>
<rect x="137.32" y="161.836" style="fill:#67BFFF;" width="196.453" height="31.337"/>
<rect x="83.566" y="226.861" style="fill:#FFFFFF;" width="305.151" height="57.117"/>
<rect x="235.551" y="161.836" style="fill:#0088FF;" width="98.221" height="31.337"/>
<rect x="235.551" y="226.861" style="fill:#D9D8DB;" width="153.166" height="57.117"/>
<path style="fill:#67BFFF;" d="M512,400.658c0,58.193-47.173,105.366-105.366,105.366c-0.251,0-0.501,0-0.752-0.01
	c-28.465-0.188-54.234-11.678-73.078-30.199c-16.922-16.63-28.256-38.921-30.919-63.823c-0.397-3.719-0.616-7.5-0.616-11.334
	c0-31.577,13.903-59.906,35.902-79.22c0.24-0.209,0.48-0.418,0.721-0.616c8.576-7.396,18.364-13.423,29.008-17.768
	c12.044-4.899,25.195-7.657,38.984-7.74c0.251-0.01,0.501-0.01,0.752-0.01C464.827,295.302,512,342.465,512,400.658z"/>
<path style="fill:#0088FF;" d="M512,400.658c0,58.193-47.173,105.366-105.366,105.366c-0.251,0-0.501,0-0.752-0.01V295.313
	c0.251-0.01,0.501-0.01,0.752-0.01C464.827,295.302,512,342.465,512,400.658z"/>
<polygon style="fill:#FFFFFF;" points="462.08,386.013 462.08,417.35 422.302,417.35 422.302,459.196 390.965,459.196 
	390.965,417.35 351.188,417.35 351.188,386.013 390.965,386.013 390.965,344.178 422.302,344.178 422.302,386.013 "/>
<polygon style="fill:#D9D8DB;" points="462.08,386.013 462.08,417.35 422.302,417.35 422.302,459.196 405.882,459.196 
	405.882,344.178 422.302,344.178 422.302,386.013 "/>
</svg>