<svg version="1.1" xmlns="http://www.w3.org/2000/svg" viewBox="0 0 1075 1075"><path d="M252.1 861.8c-8-7.2-12.2-15.6-14.3-26.8-5.3-29 18.5-76.5 52.8-116.1 34.3-39.6 56.7-87 55.4-118.7 0 0-9-108.3 40.4-201.2 18.9-39.9 49.7-77.7 98.9-105.1C331.6 355.8 320.8 509 324.4 577.8c0.9 17.7-0.7 35.8-4.9 53.8-4.8 20.7-12.2 39.5-21.9 55.7-2.2 3.7-4.6 7.4-7 11.1l-0.6 0.8-22.2 29.1c-33.2 38.3-53.9 81.7-49.8 103.9 3.1 17 20.5 31.6 53.8 45-8.1-4.8-14.5-9.9-19.7-15.4z" fill="#EDD1B0" /><path d="M512 0C229.2 0 0 229.2 0 512s229.2 512 512 512 512-229.2 512-512S794.8 0 512 0z m331.5 230.1c-25.1 30.7-77.8 72-138.7 72-1.5 0-3-0.1-4.5-0.2 7.4 7.5 12.7 14.6 17.2 21l3.1 4.2c20.5 27.3 116.8 175.9 1.6 422.2-58.8 125.8-158.7 191.1-287.9 191.1-43 0-89.2-7.2-138.2-21.8-68.9-20.5-102.5-45.4-108.9-80.7-7.1-39.1 25.9-93.9 56.3-129l21.3-28c2.1-3.2 4.1-6.3 6-9.5 8.1-13.4 14.2-29.1 18.3-46.6 3.5-15.3 4.9-30.5 4.1-45.3-3.3-63.6 4-267.7 218.1-327-38.5-27.7-62.1-71.3-71.7-101.9l-4.9-15.8 16-4c106.2-26.3 154.6 10.3 174 34.5 7.2 8.9 12.5 19.2 16.2 29.8 7.3-8.1 15.7-15.2 25.4-20.6 27-15.1 85.6-30.9 174.2 33.2l13.4 9.7-10.4 12.7z" fill="#FFE9D7" /><path d="M628.6 729.4c-2.4 5-4.7 9.7-7.1 14.5l17.4-4.1C609.7 802.2 572 842.6 533 868.3c-24.6 21.7-48.9 34-72.1 40.1 88.8-6.8 176.5-50.9 233.2-172.3 107.6-230.2 20.2-365.6 1.6-390.4-1.1-1.5-2.3-3.1-3.4-4.7-10.9-15-26.1-35.9-82.2-52.2 10.2 14.8 16.4 34.9 25.9 47.6 15.8 21.2 106 150.3-7.4 393zM386.4 399.1c29.2-54.9 79-104.4 163-123.1l-1.8-0.3c-23.1 4.5-43.7 10.8-62.3 18.3-49.2 27.4-80 65.2-98.9 105.1z" fill="#F4A545" /><path d="M613.4 245.8c5.3-17.1 2.8-41.6-12.8-61.1-23.2-28.9-67.2-38.5-124.9-27.5 14.5 32.9 55.8 103.3 137.7 88.6zM681.6 201.6c-21.8 12.2-33.3 34-34.8 51.8 70.4 44.2 135.1-5.6 160.9-30.6-49.4-31.7-93.8-39.3-126.1-21.2z" fill="#91CC6A" /><path d="M666.4 174.5c-9.6 5.4-18.1 12.5-25.4 20.6-3.7-10.7-9-20.9-16.2-29.8-19.4-24.1-67.8-60.7-174-34.5l-16 4 4.9 15.8c9.6 30.6 33.2 74.2 71.7 101.9-214.1 59.3-221.3 263.3-218.1 327 0.8 14.8-0.6 30-4.1 45.3-4 17.5-10.2 33.2-18.3 46.6-1.9 3.2-3.9 6.3-6 9.5l-21.3 28c-30.4 35.1-63.4 90-56.3 129 6.4 35.3 40 60.2 108.9 80.7 49 14.6 95.2 21.8 138.2 21.8 129.2 0 229.1-65.2 287.9-191.1 115.1-246.3 18.8-394.9-1.6-422.2l-3.1-4.2c-4.6-6.3-9.8-13.5-17.2-21 1.5 0 3 0.2 4.5 0.2 60.9 0 113.6-41.3 138.7-72l10.5-12.8-13.4-9.7c-88.7-64-147.3-48.2-174.3-33.1z m-19.6 79c1.5-17.9 13-39.7 34.8-51.8 32.4-18.1 76.7-10.5 126.2 21.2-25.9 25-90.5 74.8-161 30.6z m-46.2-68.7c15.6 19.4 18.1 43.9 12.8 61.1-81.9 14.7-123.2-55.8-137.8-88.6 57.7-11 101.7-1.4 125 27.5zM271.7 877.3c-33.4-13.4-50.7-28-53.8-45-4-22.2 16.7-65.6 49.8-103.9l22.2-29.1 0.6-0.8c2.5-3.7 4.8-7.4 7-11.1 9.8-16.2 17.2-35 21.9-55.7 4.1-18.1 5.8-36.2 4.9-53.8-3.5-68.8 7.3-222 160.9-283.9 18.6-7.5 39.2-13.8 62.3-18.3l1.8 0.3c24.4 3.7 44.2 8.1 60.7 12.9 56.1 16.3 71.4 37.2 82.2 52.2 1.2 1.6 2.3 3.2 3.4 4.7 18.6 24.8 105.9 160.2-1.6 390.4-56.6 121.3-144.2 165.4-233 172.2-14.4 1.1-28.8 1.2-43.2 0.5-37.6 3.8-68.1-1.2-82-5.3-27.2-8.1-48.4-16.7-64.1-26.3z" fill="" /><path d="M471.1 577.4m-21.4 0a21.4 21.4 0 1 0 42.8 0 21.4 21.4 0 1 0-42.8 0Z" fill="" /><path d="M592.2 577.4m-21.4 0a21.4 21.4 0 1 0 42.8 0 21.4 21.4 0 1 0-42.8 0Z" fill="" /><path d="M499.4 631.1c0-2.9-2.3-5.2-5.2-5.2s-5.2 2.3-5.2 5.2c0 24 19.5 43.5 43.5 43.5s43.5-19.5 43.5-43.5c0-2.9-2.3-5.2-5.2-5.2-2.9 0-5.2 2.3-5.2 5.2 0 18.3-14.9 33.1-33.1 33.1-18.2 0-33.1-14.8-33.1-33.1z" fill="" /><path d="M401.2 476.5c1.7 0.6 3.5 0.9 5.2 0.9 6.4 0 12.4-4 14.7-10.4 9.7-27.4 21.3-50.6 34.6-69 5-7 3.5-16.7-3.5-21.7s-16.7-3.5-21.7 3.5c-15 20.7-28 46.6-38.7 76.8-3 8.2 1.3 17.1 9.4 19.9zM471.9 373.5c3.4 0 6.8-1.1 9.7-3.4 15.4-12.3 26.8-14.4 27.5-14.5 8.4-1.1 14.4-8.7 13.4-17.2s-8.7-14.6-17.2-13.7c-2 0.2-20.1 2.8-43.1 21.1-6.7 5.4-7.8 15.1-2.4 21.9 3.1 3.8 7.6 5.8 12.1 5.8z" fill="#FFFFFF" /><path d="M417.8 909c14.3 0.7 28.8 0.6 43.2-0.5 23.1-6.1 47.4-18.3 72.1-40.1 39-25.7 76.7-66.1 105.9-128.5l-17.4 4.1c2.4-4.8 4.7-9.5 7.1-14.5 113.4-242.7 23.3-371.9 7.4-393-9.5-12.7-15.7-32.8-25.9-47.6-16.4-4.8-36.3-9.1-60.7-12.9-84 18.7-133.8 68.1-163 123.1C337 492 346 600.3 346 600.3c1.3 31.7-21.1 79.1-55.4 118.7-34.3 39.6-58 87.1-52.8 116.1 2 11.1 6.3 19.5 14.3 26.8 5.2 5.4 11.6 10.6 19.6 15.5 15.7 9.6 36.9 18.2 64.2 26.4 13.8 4 44.3 8.9 81.9 5.2z m31.9-331.6c0-11.8 9.6-21.4 21.4-21.4 11.8 0 21.4 9.6 21.4 21.4 0 11.8-9.6 21.4-21.4 21.4-11.8 0-21.4-9.5-21.4-21.4z m142.5-21.3c11.8 0 21.4 9.6 21.4 21.4 0 11.8-9.6 21.4-21.4 21.4-11.8 0-21.4-9.6-21.4-21.4 0.1-11.9 9.6-21.4 21.4-21.4z m-26.5 75c0-2.9 2.3-5.2 5.2-5.2 2.9 0 5.2 2.3 5.2 5.2 0 24-19.5 43.5-43.5 43.5s-43.5-19.5-43.5-43.5c0-2.9 2.3-5.2 5.2-5.2s5.2 2.3 5.2 5.2c0 18.3 14.9 33.1 33.1 33.1 18.2 0 33.1-14.8 33.1-33.1zM462.2 345.8c22.9-18.3 41.1-20.9 43.1-21.1 8.5-1 16.2 5.1 17.2 13.7 1 8.4-5 16.1-13.4 17.2-0.7 0.1-12.1 2.2-27.5 14.5-2.9 2.3-6.3 3.4-9.7 3.4-4.6 0-9.1-2-12.2-5.8-5.3-6.8-4.2-16.6 2.5-21.9z m-70.5 110.9c10.7-30.2 23.7-56.1 38.7-76.8 5-7 14.7-8.5 21.7-3.5s8.5 14.7 3.5 21.7c-13.3 18.3-24.9 41.6-34.6 69-2.3 6.4-8.3 10.4-14.7 10.4-1.7 0-3.5-0.3-5.2-0.9-8-2.9-12.3-11.8-9.4-19.9z" fill="#F7C443" /></svg>